<svg width="132" height="132" viewBox="0 0 132 132" fill="none" xmlns="http://www.w3.org/2000/svg">
<circle opacity="0.1" cx="66" cy="66" r="66" fill="#075fb6"/>
<rect x="22" y="59" width="89" height="43" stroke="#075fb6" stroke-width="3"/>
<rect x="89.7188" y="65.0625" width="6.1875" height="5.15625" stroke="#075fb6" stroke-width="3"/>
<rect x="50" y="58" width="4" height="42" fill="#075fb6"/>
<rect x="80" y="58" width="5" height="42" fill="#075fb6"/>
<rect x="100.031" y="65.0625" width="6.1875" height="5.15625" stroke="#075fb6" stroke-width="3"/>
<rect x="89.7188" y="77" width="6.1875" height="5.15625" stroke="#075fb6" stroke-width="3"/>
<rect x="100.031" y="77" width="6.1875" height="5.15625" stroke="#075fb6" stroke-width="3"/>
<rect x="89.7188" y="89" width="6.1875" height="5.15625" stroke="#075fb6" stroke-width="3"/>
<rect x="100.031" y="89" width="6.1875" height="5.15625" stroke="#075fb6" stroke-width="3"/>
<rect x="27.8438" y="65.0625" width="6.1875" height="5.15625" stroke="#075fb6" stroke-width="3"/>
<rect x="38.1562" y="65.0625" width="6.1875" height="5.15625" stroke="#075fb6" stroke-width="3"/>
<rect x="27.8438" y="77" width="6.1875" height="5.15625" stroke="#075fb6" stroke-width="3"/>
<rect x="38.1562" y="77" width="6.1875" height="5.15625" stroke="#075fb6" stroke-width="3"/>
<rect x="27.8438" y="89" width="6.1875" height="5.15625" stroke="#075fb6" stroke-width="3"/>
<rect x="38.1562" y="89" width="6.1875" height="5.15625" stroke="#075fb6" stroke-width="3"/>
<rect x="60" y="58" width="4" height="42" fill="#075fb6"/>
<rect x="70" y="58" width="4" height="42" fill="#075fb6"/>
<rect x="15" y="57" width="103" height="3" fill="#075fb6"/>
<path d="M66.5 44L96 59H37L66.5 44Z" stroke="#075fb6" stroke-width="3"/>
<path d="M15 101H118V104H15V101Z" fill="#075fb6"/>
<path d="M19 99H114V102H19V99Z" fill="#075fb6"/>
<rect x="67" y="31" width="13.4062" height="8.25" stroke="#075fb6" stroke-width="3"/>
<rect x="65" y="29" width="3" height="16" fill="#075fb6"/>
</svg>
